<svg xmlns="http://www.w3.org/2000/svg" width="512" height="512" viewBox="0 0 512 512">
  <defs>
    <linearGradient id="sand" x1="0" y1="0" x2="1" y2="1">
      <stop offset="0" stop-color="#c9b486"/>
      <stop offset="1" stop-color="#9e845d"/>
    </linearGradient>
  </defs>
  <rect width="512" height="512" fill="url(#sand)"/>
  <g fill="#8e8172" opacity=".9">
    <rect x="35" y="42" width="102" height="72" rx="5"/>
    <rect x="162" y="32" width="138" height="96" rx="5"/>
    <rect x="329" y="55" width="146" height="66" rx="5"/>
    <rect x="52" y="174" width="151" height="88" rx="5"/>
    <rect x="245" y="162" width="95" height="115" rx="5"/>
    <rect x="371" y="172" width="104" height="93" rx="5"/>
    <rect x="40" y="326" width="124" height="116" rx="5"/>
    <rect x="205" y="337" width="131" height="92" rx="5"/>
    <rect x="375" y="315" width="98" height="131" rx="5"/>
  </g>
  <g stroke="#e8dfc6" stroke-width="22" opacity=".95">
    <path d="M-10 145 L522 145"/>
    <path d="M-10 296 L522 296"/>
    <path d="M184 -10 L184 522"/>
    <path d="M354 -10 L354 522"/>
  </g>
  <g fill="#4f765b" opacity=".85">
    <circle cx="101" cy="296" r="28"/>
    <circle cx="185" cy="145" r="22"/>
    <circle cx="354" cy="296" r="27"/>
    <circle cx="427" cy="145" r="20"/>
  </g>
  <rect x="176" y="224" width="160" height="64" rx="12" fill="#07181b" opacity=".86"/>
  <text x="256" y="250" fill="#2bd2c0" font-family="Arial, sans-serif" font-size="22" font-weight="700" text-anchor="middle">DEMO</text>
  <text x="256" y="273" fill="#ffffff" font-family="Arial, sans-serif" font-size="13" text-anchor="middle">SAMPLE SATELLITE CONTEXT</text>
</svg>
